<svg width="45" height="45" viewBox="0 0 45 45" fill="none" xmlns="http://www.w3.org/2000/svg">
<path d="M10.4519 15.0588L14.0644 11.4463L13.5269 10.9088L10.4519 13.9838L8.96436 12.4963L8.42686 13.0338L10.4519 15.0588ZM7.46436 17.5713C7.26436 17.5713 7.08936 17.4963 6.93936 17.3463C6.78936 17.1963 6.71436 17.0213 6.71436 16.8213V9.32129C6.71436 9.12129 6.78936 8.94629 6.93936 8.79629C7.08936 8.64629 7.26436 8.57129 7.46436 8.57129H14.9644C15.1644 8.57129 15.3394 8.64629 15.4894 8.79629C15.6394 8.94629 15.7144 9.12129 15.7144 9.32129V16.8213C15.7144 17.0213 15.6394 17.1963 15.4894 17.3463C15.3394 17.4963 15.1644 17.5713 14.9644 17.5713H7.46436ZM7.46436 16.8213H14.9644V9.32129H7.46436V16.8213Z" fill="#223867"/>
<path d="M17.2856 11.4287H29.4285" stroke="#223867"/>
<path d="M17.2856 13.5713H23.7142" stroke="#223867"/>
<path d="M10.7375 25.4875L14.35 21.875L13.8125 21.3375L10.7375 24.4125L9.25 22.925L8.7125 23.4625L10.7375 25.4875ZM7.75 28C7.55 28 7.375 27.925 7.225 27.775C7.075 27.625 7 27.45 7 27.25V19.75C7 19.55 7.075 19.375 7.225 19.225C7.375 19.075 7.55 19 7.75 19H15.25C15.45 19 15.625 19.075 15.775 19.225C15.925 19.375 16 19.55 16 19.75V27.25C16 27.45 15.925 27.625 15.775 27.775C15.625 27.925 15.45 28 15.25 28H7.75ZM7.75 27.25H15.25V19.75H7.75V27.25Z" fill="#223867"/>
<path d="M17.5713 21.8574H29.7141" stroke="#223867"/>
<path d="M17.5713 24H23.9999" stroke="#223867"/>
<path d="M33.0257 29.0903C35.7489 25.3737 36.9686 20.7658 36.4408 16.1884C35.9129 11.6111 33.6765 7.40182 30.1789 4.4028C26.6812 1.40377 22.1804 -0.163842 17.5767 0.0135691C12.9731 0.190981 8.60616 2.10034 5.34964 5.35964C2.09312 8.61895 0.18716 12.9878 0.0130679 17.5923C-0.161024 22.1967 1.40959 26.6971 4.41069 30.193C7.4118 33.689 11.6221 35.9228 16.1992 36.4474C20.7763 36.972 25.3826 35.7488 29.0967 33.0226H29.0939C29.1764 33.1351 29.2683 33.2429 29.3695 33.346L40.1973 44.1753C40.7246 44.7031 41.44 44.9997 42.186 45C42.9321 45.0003 43.6477 44.7041 44.1754 44.1767C44.7031 43.6493 44.9997 42.9338 45 42.1876C45.0003 41.4415 44.7041 40.7258 44.1768 40.198L33.3491 29.3688C33.2486 29.2669 33.1405 29.1757 33.0257 29.0903ZM33.7513 18.2779C33.7513 20.3095 33.3512 22.3212 32.5738 24.1982C31.7965 26.0751 30.6571 27.7806 29.2207 29.2171C27.7844 30.6537 26.0792 31.7932 24.2025 32.5707C22.3258 33.3481 20.3144 33.7483 18.2831 33.7483C16.2518 33.7483 14.2404 33.3481 12.3637 32.5707C10.487 31.7932 8.78179 30.6537 7.34544 29.2171C5.90909 27.7806 4.76971 26.0751 3.99236 24.1982C3.21502 22.3212 2.81492 20.3095 2.81492 18.2779C2.81492 14.1749 4.4446 10.24 7.34544 7.33874C10.2463 4.43749 14.1807 2.80758 18.2831 2.80758C22.3855 2.80758 26.3199 4.43749 29.2207 7.33874C32.1216 10.24 33.7513 14.1749 33.7513 18.2779Z" fill="#223867"/>
</svg>
