<svg width="45" height="45" viewBox="0 0 45 45" fill="none" xmlns="http://www.w3.org/2000/svg">
<path d="M30.5358 33.7503V40.1788C30.5358 41.0313 30.1971 41.849 29.5943 42.4517C28.9915 43.0543 28.174 43.3931 27.3215 43.3931H4.82146C3.96897 43.3931 3.15142 43.0543 2.54862 42.4517C1.94583 41.849 1.60718 41.0313 1.60718 40.1788V4.82171C1.60718 3.96921 1.94583 3.15166 2.54862 2.54886C3.15142 1.94607 3.96897 1.60742 4.82146 1.60742H27.3215C28.174 1.60742 28.9915 1.94607 29.5943 2.54886C30.1971 3.15166 30.5358 3.96921 30.5358 4.82171V11.2503" stroke="#223867" stroke-linecap="round" stroke-linejoin="round"/>
<path d="M20.8929 22.5H43.3929" stroke="#223867" stroke-linecap="round" stroke-linejoin="round"/>
<path d="M36.9644 16.0713L43.3929 22.4999L36.9644 28.9284" stroke="#223867" stroke-linecap="round" stroke-linejoin="round"/>
</svg>
